<svg xmlns="http://www.w3.org/2000/svg" width="193.901" height="28.451" viewBox="0 0 193.901 28.451"><g id="svgGroup" fill="#111827" fill-rule="evenodd" stroke="#111827" stroke-linecap="round" stroke-width=".945" font-size="12" style="stroke:#111827;stroke-width:.25mm;fill:#111827"><path id="0" d="M 22.55 4.451 L 22.55 0.451 L 28.3 0.451 L 28.3 28.001 L 22.55 28.001 L 22.55 23.901 A 10.478 10.478 0 0 1 20.195 26.18 A 13.404 13.404 0 0 1 18.6 27.151 A 11.513 11.513 0 0 1 14.645 28.348 A 14.429 14.429 0 0 1 12.9 28.451 Q 9.35 28.451 6.4 26.626 A 12.839 12.839 0 0 1 1.946 21.929 A 15.3 15.3 0 0 1 1.725 21.526 A 14.992 14.992 0 0 1 0.108 16.121 A 18.52 18.52 0 0 1 0 14.101 A 17.012 17.012 0 0 1 0.459 10.074 A 13.874 13.874 0 0 1 1.725 6.751 Q 3.45 3.551 6.425 1.776 Q 9.4 0.001 13 0.001 A 14.009 14.009 0 0 1 15.866 0.281 A 10.702 10.702 0 0 1 18.675 1.276 A 12.795 12.795 0 0 1 20.977 2.807 A 10.399 10.399 0 0 1 22.55 4.451 Z M 22.55 14.201 A 11.634 11.634 0 0 0 22.293 11.698 A 8.893 8.893 0 0 0 21.375 9.251 A 8.828 8.828 0 0 0 19.774 7.157 A 7.754 7.754 0 0 0 18.3 6.051 Q 16.4 4.951 14.2 4.951 Q 12 4.951 10.1 6.026 A 7.913 7.913 0 0 0 7.41 8.552 A 9.643 9.643 0 0 0 7.025 9.176 A 8.888 8.888 0 0 0 6.016 12.072 A 11.95 11.95 0 0 0 5.85 14.101 A 11.698 11.698 0 0 0 6.135 16.737 A 9.233 9.233 0 0 0 7.025 19.101 Q 8.2 21.251 10.125 22.376 Q 12.05 23.501 14.2 23.501 Q 16.4 23.501 18.3 22.401 A 7.948 7.948 0 0 0 20.909 19.936 A 9.819 9.819 0 0 0 21.375 19.176 A 9.303 9.303 0 0 0 22.411 16.074 A 12.203 12.203 0 0 0 22.55 14.201 Z"/><path id="1" d="M 80.5 11.751 L 80.5 28.001 L 74.85 28.001 L 74.85 12.601 Q 74.85 9.962 73.909 8.2 A 5.967 5.967 0 0 0 73 6.926 A 6.1 6.1 0 0 0 69.555 5.09 A 8.834 8.834 0 0 0 67.95 4.951 A 8.366 8.366 0 0 0 65.747 5.225 A 6.083 6.083 0 0 0 62.875 6.926 A 6.383 6.383 0 0 0 61.412 9.511 Q 61.11 10.506 61.029 11.706 A 13.39 13.39 0 0 0 61 12.601 L 61 28.001 L 55.35 28.001 L 55.35 12.601 Q 55.35 9.962 54.409 8.2 A 5.967 5.967 0 0 0 53.5 6.926 A 6.1 6.1 0 0 0 50.055 5.09 A 8.834 8.834 0 0 0 48.45 4.951 A 8.366 8.366 0 0 0 46.247 5.225 A 6.083 6.083 0 0 0 43.375 6.926 A 6.383 6.383 0 0 0 41.912 9.511 Q 41.61 10.506 41.529 11.706 A 13.39 13.39 0 0 0 41.5 12.601 L 41.5 28.001 L 35.8 28.001 L 35.8 0.451 L 41.5 0.451 L 41.5 3.601 A 9.401 9.401 0 0 1 44.768 1.08 A 10.995 10.995 0 0 1 45.05 0.951 Q 47.2 0.001 49.65 0.001 A 13.307 13.307 0 0 1 53.13 0.441 A 11.294 11.294 0 0 1 55.55 1.401 Q 58.15 2.801 59.55 5.451 A 9.081 9.081 0 0 1 62.885 1.812 A 11.231 11.231 0 0 1 63.45 1.476 Q 66.1 0.001 69.15 0.001 A 13.415 13.415 0 0 1 72.593 0.428 A 11.382 11.382 0 0 1 74.975 1.351 Q 77.55 2.701 79.025 5.351 A 11.295 11.295 0 0 1 80.218 8.68 Q 80.5 10.11 80.5 11.751 Z"/><path id="2" d="M 108.4 4.451 L 108.4 0.451 L 114.15 0.451 L 114.15 28.001 L 108.4 28.001 L 108.4 23.901 A 10.478 10.478 0 0 1 106.045 26.18 A 13.404 13.404 0 0 1 104.45 27.151 A 11.513 11.513 0 0 1 100.495 28.348 A 14.429 14.429 0 0 1 98.75 28.451 Q 95.2 28.451 92.25 26.626 A 12.839 12.839 0 0 1 87.796 21.929 A 15.3 15.3 0 0 1 87.575 21.526 A 14.992 14.992 0 0 1 85.958 16.121 A 18.52 18.52 0 0 1 85.85 14.101 A 17.012 17.012 0 0 1 86.309 10.074 A 13.874 13.874 0 0 1 87.575 6.751 Q 89.3 3.551 92.275 1.776 Q 95.25 0.001 98.85 0.001 A 14.009 14.009 0 0 1 101.716 0.281 A 10.702 10.702 0 0 1 104.525 1.276 A 12.795 12.795 0 0 1 106.827 2.807 A 10.399 10.399 0 0 1 108.4 4.451 Z M 108.4 14.201 A 11.634 11.634 0 0 0 108.143 11.698 A 8.893 8.893 0 0 0 107.225 9.251 A 8.828 8.828 0 0 0 105.624 7.157 A 7.754 7.754 0 0 0 104.15 6.051 Q 102.25 4.951 100.05 4.951 Q 97.85 4.951 95.95 6.026 A 7.913 7.913 0 0 0 93.26 8.552 A 9.643 9.643 0 0 0 92.875 9.176 A 8.888 8.888 0 0 0 91.866 12.072 A 11.95 11.95 0 0 0 91.7 14.101 A 11.698 11.698 0 0 0 91.985 16.737 A 9.233 9.233 0 0 0 92.875 19.101 Q 94.05 21.251 95.975 22.376 Q 97.9 23.501 100.05 23.501 Q 102.25 23.501 104.15 22.401 A 7.948 7.948 0 0 0 106.759 19.936 A 9.819 9.819 0 0 0 107.225 19.176 A 9.303 9.303 0 0 0 108.261 16.074 A 12.203 12.203 0 0 0 108.4 14.201 Z"/><path id="3" d="M 142.3 4.451 L 142.3 0.451 L 148.05 0.451 L 148.05 28.001 L 142.3 28.001 L 142.3 23.901 A 10.478 10.478 0 0 1 139.945 26.18 A 13.404 13.404 0 0 1 138.35 27.151 A 11.513 11.513 0 0 1 134.395 28.348 A 14.429 14.429 0 0 1 132.65 28.451 Q 129.1 28.451 126.15 26.626 A 12.839 12.839 0 0 1 121.696 21.929 A 15.3 15.3 0 0 1 121.475 21.526 A 14.992 14.992 0 0 1 119.858 16.121 A 18.52 18.52 0 0 1 119.75 14.101 A 17.012 17.012 0 0 1 120.209 10.074 A 13.874 13.874 0 0 1 121.475 6.751 Q 123.2 3.551 126.175 1.776 Q 129.15 0.001 132.75 0.001 A 14.009 14.009 0 0 1 135.616 0.281 A 10.702 10.702 0 0 1 138.425 1.276 A 12.795 12.795 0 0 1 140.727 2.807 A 10.399 10.399 0 0 1 142.3 4.451 Z M 142.3 14.201 A 11.634 11.634 0 0 0 142.043 11.698 A 8.893 8.893 0 0 0 141.125 9.251 A 8.828 8.828 0 0 0 139.524 7.157 A 7.754 7.754 0 0 0 138.05 6.051 Q 136.15 4.951 133.95 4.951 Q 131.75 4.951 129.85 6.026 A 7.913 7.913 0 0 0 127.16 8.552 A 9.643 9.643 0 0 0 126.775 9.176 A 8.888 8.888 0 0 0 125.766 12.072 A 11.95 11.95 0 0 0 125.6 14.101 A 11.698 11.698 0 0 0 125.885 16.737 A 9.233 9.233 0 0 0 126.775 19.101 Q 127.95 21.251 129.875 22.376 Q 131.8 23.501 133.95 23.501 Q 136.15 23.501 138.05 22.401 A 7.948 7.948 0 0 0 140.659 19.936 A 9.819 9.819 0 0 0 141.125 19.176 A 9.303 9.303 0 0 0 142.161 16.074 A 12.203 12.203 0 0 0 142.3 14.201 Z"/><path id="4" d="M 180.75 11.751 L 180.75 28.001 L 175.1 28.001 L 175.1 12.601 Q 175.1 9.962 174.159 8.2 A 5.967 5.967 0 0 0 173.25 6.926 A 6.1 6.1 0 0 0 169.805 5.09 A 8.834 8.834 0 0 0 168.2 4.951 A 8.366 8.366 0 0 0 165.997 5.225 A 6.083 6.083 0 0 0 163.125 6.926 A 6.383 6.383 0 0 0 161.662 9.511 Q 161.36 10.506 161.279 11.706 A 13.39 13.39 0 0 0 161.25 12.601 L 161.25 28.001 L 155.55 28.001 L 155.55 0.451 L 161.25 0.451 L 161.25 3.601 A 9.299 9.299 0 0 1 164.359 1.167 A 10.987 10.987 0 0 1 164.825 0.951 Q 167 0.001 169.45 0.001 A 13.415 13.415 0 0 1 172.893 0.428 A 11.382 11.382 0 0 1 175.275 1.351 Q 177.85 2.701 179.3 5.351 Q 180.75 8.001 180.75 11.751 Z"/><path id="5" d="M 190.3 28.351 Q 188.75 28.351 187.7 27.301 A 3.523 3.523 0 0 1 186.651 24.749 A 4.541 4.541 0 0 1 186.65 24.701 Q 186.65 23.151 187.7 22.101 A 3.523 3.523 0 0 1 190.252 21.051 A 4.541 4.541 0 0 1 190.3 21.051 Q 191.8 21.051 192.85 22.101 A 3.523 3.523 0 0 1 193.9 24.652 A 4.541 4.541 0 0 1 193.9 24.701 Q 193.9 26.251 192.85 27.301 A 3.467 3.467 0 0 1 190.347 28.35 A 4.255 4.255 0 0 1 190.3 28.351 Z"/></g></svg>